<svg xmlns="http://www.w3.org/2000/svg" viewBox="0 0 64 64" role="img" aria-label="null-noise">
  <rect width="64" height="64" rx="14" fill="#fff6e5"/>
  <path d="M14 28c0-10 8-17 18-17s18 7 18 17v14c0 7-6 12-18 12s-18-5-18-12V28Z" fill="#230a2c"/>
  <path d="M20 29c0-7 5-12 12-12s12 5 12 12v11c0 5-4 8-12 8s-12-3-12-8V29Z" fill="#fffdf8"/>
  <circle cx="27" cy="31" r="3" fill="#0b8fff"/>
  <circle cx="39" cy="31" r="3" fill="#ff6a1a"/>
  <path d="M25 40c4 3 10 3 14 0" fill="none" stroke="#230a2c" stroke-width="4" stroke-linecap="round"/>
  <path d="M13 18 5 10M51 18l8-8" stroke="#ffd21f" stroke-width="5" stroke-linecap="round"/>
  <path d="M8 54h48" stroke="#c7a2ff" stroke-width="6" stroke-linecap="round"/>
</svg>
