<?xml version="1.0" encoding="UTF-8"?>
<svg id="Ebene_1" xmlns="http://www.w3.org/2000/svg" version="1.1" viewBox="0 0 1920 910">
  <!-- Generator: Adobe Illustrator 30.3.0, SVG Export Plug-In . SVG Version: 2.1.3 Build 182)  -->
  <defs>
    <style>
      .st0 {
        fill: #241c26;
      }

      .st1 {
        fill: #1f141d;
      }

      .st2 {
        fill: #281a27;
      }

      .st3 {
        fill: #5e5758;
      }

      .st4 {
        fill: #291a27;
      }

      .st5 {
        fill: #281927;
      }

      .st6 {
        fill: #f46328;
      }

      .st7 {
        fill: #2d232b;
      }

      .st8 {
        fill: #271926;
      }

      .st9 {
        fill: #281926;
      }

      .st10 {
        fill: #4e474f;
      }

      .st11 {
        fill: #140917;
      }
    </style>
  </defs>
  <g id="sSHg26.tif">
    <g>
      <path class="st5" d="M337.37,2.31c22.64,5.55,43.94,14.85,51.91,37.47-2.4,1.62-3.32,4.47-2.53,6.09.57,1.16,4.47,3.26,4.47,5.61l-.54,307.17-2.35,32.51c-.86,12.13-8.73,19.97-19.14,27.66-24.91,18.41-83.18,14.93-105.69-15.55l-122.02-159.49-6.01.97-.11,138.68-5.53,19.25c-10.05,20.86-35.96,26.79-58.81,27.47-26.93.81-51.11-11.19-60.35-35.18l-1.67-27.66.16-297.44c0-30.14,17.33-40.59,10.13-43.5C30.15,10.72,46.88,5.95,65.51,5.38l18.98-.57c19.52-.59,40.22,10.32,53.07,28.03l122.13,167.93.11-136.44c.03-36.33,24.61-59.81,58.65-62h18.84l.08-.03Z"/>
      <path class="st5" d="M536.57,2.31h2.7c27.17,4.88,49.03,22.88,55.77,52.51l2.72,203.4c.54,41.13,47.87,61.62,80.97,50.67,11.81,4.58,43.53-14.12,42-32.48l-.7-2.35c1.64.4,4.39.22,5.55-.7s2.72-4.2,2.88-6.58l3.02-47.06,1.02-39.89c-2.1-40.97-2.67-80-1.13-121.11,1.48-38.92,31.19-40.19,46.66-51.19,1.99-1.43,5.34-2.16,6.15-5.2h2.7c4.77,4.96,12.88,2.16,18.41,2.4,35.2,1.59,57.74,29.35,57.49,64.91l-1.4,213.13c-10.27,66.36-50.65,117.9-114.88,139.52-53.69,18.06-116.28,18.6-170.14.57-63.26-21.19-110.24-71.73-115.63-140.3l-1.86-226.47c-.22-25.74,25.69-47.79,47.49-50.11,4.8-.51,6.36.86,8.65.11,1.16-.38,2.29-2.43,2.67-3.72h2.7c3.8,4.2,12.35,4.2,16.15,0l.05-.05Z"/>
      <path class="st6" d="M1912,45.33v21.51l-144.66,336.5c-12.05,12.91-29.14,19.41-45.69,16.79-15.18-2.88-30.27-11.02-36.31-27.14-7.44-19.76.92-36.17,8.81-54.66l129.46-302.91c8.95-20.92,30.05-24.31,51.32-22.37,16.17,1.48,30.76,15.12,37.06,32.32v-.03Z"/>
      <path class="st0" d="M1379.06,2.31c6.74,4.15,17.47,4.15,24.23,0h2.7c9.87,5.55,22.45,7.28,31.75,15.04-7.04,5.8-10.51-.32-15.55-2.18-22.26-8.19-48.98-8.09-70.14,2.26-13.69,6.68-16.01,21.19-26.15,33.75l-.7,327.85c10.7,26.95,27.98,45.09,56.58,45.26l217.52.32c-5.74,4.82-12.67,5.2-21.19,5.18l-207.76-.51c-33.13-9.57-53.15-33.32-50.57-67.04l.7-303.24c.08-30.94,27.01-50.57,53.21-56.66h5.39l-.03-.03Z"/>
      <polygon class="st3" points="1034.52 2.31 1034.58 5.65 996.25 5.22 996.84 2.31 1034.52 2.31"/>
      <path class="st3" d="M1403.26,2.31c-6.74,4.15-17.47,4.15-24.23,0h24.23Z"/>
      <path class="st3" d="M805.73,2.31l-.43,2.4c-5.55-.24-13.64,2.56-18.41-2.4h18.84Z"/>
      <polygon class="st3" points="84.35 2.31 84.54 4.79 65.56 5.38 65.51 2.31 84.35 2.31"/>
      <path class="st3" d="M536.57,2.31c-3.8,4.2-12.35,4.2-16.15,0h16.15Z"/>
      <path class="st9" d="M394.6,539.94c-1.24,6.31-1.11,12.94,1.91,18.71.35.67.08,1.97.08,2.67v271.43l-.03,2.72c-3.32,6.47-4.72,15.53-.97,21.73-4.34,26.2-27.82,42.24-52.1,45.9-37.17,5.61-66.25-8.6-88.25-37.01l-111.16-143.75-1.75,124.83c-.46,32.64-25.58,53.69-56.25,56.09-25.58-2.53-52.53-9.81-69.11-33.37.4-9.7-.73-17.92-5.85-26.33l1.78-291.08c.08-13.58,9.6-31.89,18.33-37.52,7.52-4.85,15.23-7.79,19.52-14.77,9.81-2.4,17.22.3,25.47-.75,24.91-3.15,46.69,4.15,62.94,23.75l123.96,159.57,2.21-143.72c9.54-25.9,28.79-41.81,55.42-39.57,31.62-8.92,66.44,9.19,73.94,40.43l-.08.05Z"/>
      <path class="st8" d="M796.22,868.41c-90.43,63.45-217.04,53.64-293.1-25.85-70.59-73.77-71.05-204.42,1.11-283.37,41.19-45.07,98.6-65.23,161.24-65.98,121.51-1.48,219.68,94.1,214.07,216.01-2.96,64.29-28.33,120.62-83.32,159.19ZM748.24,722.02c11.24-39.65-12.29-80.57-48.3-101.24-24.31-13.96-53.64-10.89-77.58,4.2-20.89,13.21-34.37,32.67-40.3,60.59-9.35,43.99,19.06,90.84,62.08,99.87,47.82,10.05,90.11-13.96,104.1-63.42h0Z"/>
      <path class="st5" d="M1724.99,900.62c2.48-4.04.67-5.74-.62-5.39l-5.96,1.54c-63.96-7.25-183.69,4.99-206.44-3.96-14.64-5.77-29.78-20.05-29.89-39.65l-4.07-302.75c.19-32.78,34.42-51.46,61.97-51.29l177.82,1.19c29.95.19,47.93,28.11,49.3,55.09,1.73,33.75-20.92,57.22-54.21,57.39l-103.67.46c-2.7,13.13-1.27,24.21-1.16,36.66l93.53.59c29.3.19,46.77,25.34,45.42,53.48-1.24,25.98-18.6,47.84-45.2,47.93l-93.94.27,1.11,34.58,110.19,1.54c33.45,2.94,50.78,29.62,49,60.89-1.37,23.8-14.72,51.16-43.15,51.43l-.03.03Z"/>
      <path class="st8" d="M1158.51,881.18c-19.87-11.02-32.99-27.92-36.07-52.62-2.56-20.57,10.51-46.77,28.6-59.11,20.05-13.69,45.74-6.17,64.56,5.96,36.15,23.32,77.68,29.06,82.1,4.23,1.24-7.01-5.31-16.15-13.34-19.22-38.63-14.82-101.27-32.86-125.47-60.46-27.84-31.73-35.74-75.63-22.1-119.22,10.59-33.83,41.38-68.28,80.62-78.09,58.14-14.53,119.44-13.69,169.06,18.09,17.98,11.51,29.65,28.57,31.08,46.63,1.67,21.02-5.47,40.7-22.72,52.18-51.89,34.58-72.1-28.06-127.28-13.77-6.82,1.75-10.46,5.39-11.97,11.51-1.27,5.18,1.7,13.5,8.81,16.25l86.36,33.15c43.02,20.24,71.48,54.69,74.66,101.21,4.07,59.03-25.71,109.03-82.32,129.19-60.38,21.51-127.87,15.5-184.56-15.93h-.03Z"/>
      <path class="st2" d="M996.25,5.22l38.36.43c24.8,4.04,50.22,25.58,50.38,53.29l1.37,235.07c.03,5.39,1.35,12.16,4.04,14.47,1.05.89,87.95,3.8,110.65.67,21.29-2.94,42.13,3.77,54.56,17.14,14.61,15.71,17.09,36.36,13.61,58.57-3.8,24.21-27.95,44.02-54.64,43.91l-201.78-.86c-34.12,4.66-64.12-16.23-67.52-49.49l.51-316.96-1.24-5.12c.16-26.71,27.49-51.4,51.67-51.13h.03Z"/>
      <path class="st2" d="M1437.71,17.35c14.88,12.64,23.02,31.38,22.05,52.35l.35,239.68,113.02,2.4c21.67-7.25,47.6-.11,60,18.25,14.39,35.2,9.84,79.87-19.06,87.12l-9.73,2.43c-2.21.57-2.72,4.39-2.48,7.98-.65.13-2.32-1.24-2.59-2.96l-217.52-.32c-28.6-.16-45.88-18.3-56.58-45.26l.7-327.85c10.13-12.56,12.48-27.04,26.15-33.75,21.16-10.35,47.87-10.46,70.14-2.26,5.07,1.86,8.52,7.98,15.55,2.18v.03Z"/>
      <path class="st4" d="M1064.01,534.55c-6.12,2.88-.27,8.98-.24,13.99l3.29,308.63c-5.88,36.79-46.82,53.67-83.88,45.55-25.45-5.58-49.33-23.83-47.04-50.38l-1.46-307.55c2.94-30.51,36.09-50.4,67.49-44.74,28.03-5.12,52.59,9.33,61.81,34.5h.03Z"/>
      <path class="st0" d="M50.74,500.21c-4.29,6.98-11.97,9.92-19.52,14.77-8.71,5.63-18.25,23.91-18.33,37.52l-1.78,291.08c5.12,8.38,6.25,16.63,5.85,26.33,16.58,23.56,43.56,30.84,69.11,33.37-43.88,3.45-78.9-17.98-78.87-55.69v-295.85c0-25.96,21.91-46.25,43.53-51.54h0Z"/>
      <path class="st7" d="M388.34,391.18l2.35-32.51.54-307.17c0-2.35-3.91-4.47-4.47-5.61-.78-1.62.13-4.47,2.53-6.09,1.81,5.09,6.98,12.08,6.98,20.51v314.15c-.03,6.9-3.37,15.26-7.9,16.74l-.03-.03Z"/>
      <path class="st1" d="M1067.08,857.17l-3.29-308.63c0-5.04-5.88-11.11.24-13.99,4.8,9.57,5.63,20.03,5.61,32.4l-.3,276.18-2.24,14.07-.03-.03Z"/>
      <path class="st8" d="M1724.99,900.62l-197.31,1.83c-5.04.05-13.18-3.77-17.68-6.01l1.97-3.64c22.72,8.95,142.48-3.29,206.44,3.96l5.96-1.54c1.32-.35,3.1,1.35.62,5.39h0Z"/>
      <path class="st0" d="M1511.97,892.8l-1.97,3.64c-17.57-8.71-33.83-28.38-33.69-50.86l1.7-295.18,4.07,302.75c.08,19.57,15.23,33.88,29.89,39.65Z"/>
      <path class="st11" d="M10.71,394.98c-2.02-5.23-6.28-12.4-6.31-19.35l-.4-313.94c0-12.94,8.87-26.01,15.34-35.34,7.2,2.94-10.13,13.4-10.13,43.5l-.16,297.44,1.67,27.66v.03Z"/>
      <path class="st11" d="M945.3,378.43c-1.54-.81-3.72-4.64-.16-5.39l.67-311.57-.51,316.96Z"/>
      <polygon class="st10" points="945.82 61.44 945.12 373.04 944.58 56.35 945.82 61.44"/>
      <path class="st3" d="M4.43,375.63l-.4-313.94.4,313.94Z"/>
      <path class="st11" d="M936.17,852.37l-1.48-301.81c0-1.67.67-3.64,0-5.74l1.46,307.55h.03Z"/>
      <path class="st10" d="M936.17,852.37l-1.48-301.81,1.48,301.81Z"/>
      <path class="st3" d="M398.78,835.82l-2.21-.32v-2.72l.03-271.43c0-.7.27-1.99-.08-2.67h2.59l-.32,277.15Z"/>
      <path class="st1" d="M141.52,243.79l-.65,5.77c-2.35.08-2.88,2.02-2.88,4.04s.54,3.96,3.02,4.02l-.7,121.13c-.05,7.92-7.33,17.55-10.4,23.91l5.53-19.25.11-138.68,6.01-.97-.03.03Z"/>
      <path class="st0" d="M1601.86,427.54c-.24-3.56.27-7.41,2.48-7.98l9.73-2.43c28.92-7.25,33.48-51.91,19.06-87.12,11.35,8.65,11.51,21.64,12.78,35.18,2.8,29.38-15.18,56.9-44.07,62.35h.03Z"/>
      <path class="st11" d="M395.57,857.19c-3.75-6.2-2.35-15.23.97-21.73l2.21.32c0,6.68-2.18,15.34-3.18,21.4Z"/>
      <path class="st11" d="M399.1,558.7h-2.59c-3.02-5.82-3.15-12.45-1.91-18.76l4.5,18.76h0Z"/>
      <path class="st5" d="M141.01,257.62c-2.48-.08-3.02-1.99-3.02-4.02s.54-3.96,2.88-4.04l.13,8.06Z"/>
      <path class="st0" d="M778.02,7.51c-15.47,11-45.18,12.26-46.66,51.19-1.56,41.08-1,80.14,1.13,121.11l-1.02,39.89-3.02,47.06c-.16,2.37-1.75,5.66-2.88,6.58s-3.91,1.11-5.55.7l4.69-24.56,2.13-196.9c.3-27.25,28.65-47.39,51.19-45.04v-.03Z"/>
      <path class="st0" d="M678.7,308.89c19-6.28,31.62-15.63,42-32.48,1.51,18.38-30.19,37.06-42,32.48Z"/>
      <path class="st7" d="M1325.15,379.02l.7-327.85-.7,327.85Z"/>
      <path class="st11" d="M396.59,832.75v-271.43,271.43Z"/>
    </g>
  </g>
</svg>