<?xml version="1.0" encoding="UTF-8"?>
<svg id="Ebene_1" xmlns="http://www.w3.org/2000/svg" version="1.1" viewBox="0 0 1603.34 1254">
  <!-- Generator: Adobe Illustrator 30.3.0, SVG Export Plug-In . SVG Version: 2.1.3 Build 182)  -->
  <defs>
    <style>
      .st0 {
        fill: #fbb549;
      }

      .st1 {
        fill: #f68731;
      }

      .st2 {
        fill: #0d020d;
      }

      .st3 {
        fill: #f6ede6;
      }

      .st4 {
        fill: #281927;
      }

      .st5 {
        fill: #a27ab9;
      }

      .st6 {
        fill: #f4ece5;
      }

      .st7 {
        fill: #372633;
      }

      .st8 {
        fill: #f2eae3;
      }

      .st9 {
        fill: #9f76b7;
      }

      .st10 {
        fill: #ff081a;
      }

      .st11 {
        fill: #291c27;
      }
    </style>
  </defs>
  <path class="st9" d="M1164.1,1158.87c-13.28,2.2-19.12,3.61-21.64,2.65,0,0-847.56,3.17-935.81,1.36-171.58-3.53-155.35-241.18-80.39-299.21l543.34,234.99,12.69-1.64c1.81,5.34,6.5,3.13,10.54,2.18,3.17-.75,6.41-1.23,6.63-5.57,33.02-11.32,57.02-41.01,57.37-77.1l-12.19-72.46c6.97-18.77,8.02-68.57,9.67-90.07,2.46-.69,23.46,3.65,25.39,3.63,10.89,15.58,90.32,27.34,143.78,124.74,104.15-18.41,104.87,64.93,193.52,62.46,31.4-.88,59.4-15.46,75.32-38.67,44.25-64.49-13.27-134.06-55.69-193.11,9.47-9.77,18.85-18.26,25.09-30.08,94.27,15.36,166.09,92.96,165.89,189.07-.2,94.59-72.64,170.87-163.49,186.83Z"/>
  <path class="st10" d="M1374.62,992.48c8.78-96.23-40.38-182.68-124.98-228.38,33.62-23.52,52.45-62.98,48.27-104.05-4.05-39.78-29.14-75.82-67.27-93.26,17.95-48.12,8.6-100.36-24.24-140.55,50.98-15.12,104.04,1.05,138.26,38.58,35.12,38.53,45.41,91.7,30.81,143.28-3.08,10.87-10.31,20.3-2.52,32.31,70.74,16.34,121.17,76.44,129.15,149.94,9.63,88.65-44.8,171.08-127.48,202.12Z"/>
  <path class="st1" d="M405.2,595.5c-3.02-19.28-1.04-39.05,1.25-58.58,17.08-4.69,26.6-20.29,20.28-37.54-46.35-35.5-60.52-98.25-35.77-149.78s81.17-79.55,144.79-67.19c-3.52-96.06,56.34-173.88,145.57-196.01,89.92-22.3,183.21,21.7,220.56,106.93,8.9,20.31,13.23,41.27,9.06,61.73-74.18,5.3-139.24,48.61-159.48,117.08-51.61-11.34-101.08,9.75-129.67,48.49-31.03,42.05-33.8,95.06-6.31,139.06-42.08,7.74-71.58,38.21-78.59,78.07l-61.79-2.63c-4.56-6.79-8.8-12.89-15.47-18.79l45.63-58.14c21.29,1.63,38.13-13.17,37.31-32.75-.83-19.84-18.83-33.39-36.78-30.52-20.35,3.25-32.06,22.35-25.32,42.99l-51.11,61.27-24.15-3.69Z"/>
  <path class="st7" d="M1147,1205.28H273.54s873.46,0,873.46,0Z"/>
  <path class="st5" d="M699.45,1093.62c-.22,4.35-3.46,4.82-6.63,5.57-4.05.96-8.73,3.17-10.54-2.18l17.17-3.4Z"/>
  <g>
    <path class="st4" d="M910.94,255.06c4.17-20.46-.16-41.42-9.06-61.73-37.35-85.23-130.64-129.22-220.56-106.93-89.23,22.13-149.09,99.94-145.57,196.01-63.62-12.36-119.25,14.04-144.79,67.19s-10.58,114.28,35.77,149.78c6.31,17.25-3.2,32.85-20.28,37.54-6,1.39-11.96-1.16-17.99-6.29-52.88-44.93-72.51-118.57-48.57-185.85,21.9-61.56,80.46-109,150.46-111.09,17.16-126.23,132.6-209.98,259.14-200.02,82.33,6.48,155.84,56.36,191.52,128.79,68.75-30.96,145.25-19.21,200.82,26.79,53.66,44.42,80.93,116.87,69.14,187.01,29.86-2.12,60.4-4.66,90.1,4.95,95.15,30.78,146.78,130.57,123.12,227.22,76.02,33.77,122.62,106.2,127.85,187.62,7.47,116.28-72.19,220.54-187.83,249.56-31.3,92.88-117.29,155.87-216.71,163.13l-873.5.08c-111.4-8.88-209.24-88.11-227.44-199.92-13.13-80.7,15.44-160.99,83.5-205.7l.6-87.76c.28-40.53,32.22-74.61,71.65-76.23,53.9-2.22,118.58-3.43,118.58-3.43,0,0,5.44-12.69,15.07-19.77l-48.63-57.7c-21.52,1.66-37.8-13.89-37.51-32.67.31-20.24,17.42-33.39,36.99-31.02,21.13,2.56,29.43,22.74,26.34,41.8l55.08,63.06c13.1-1.62,24.4-5.9,36.98-3.98l24.15,3.69,51.11-61.27c-6.74-20.64,4.97-39.74,25.32-42.99,17.95-2.86,35.95,10.69,36.78,30.52.82,19.58-16.03,34.38-37.31,32.75l-45.63,58.14c6.67,5.9,10.91,12,15.47,18.79l61.79,2.63c7.02-39.85,36.51-70.33,78.59-78.07-27.5-44-24.73-97.01,6.31-139.06,28.6-38.75,78.06-59.83,129.67-48.49,20.24-68.48,85.31-111.78,159.48-117.08h0ZM926.51,226.7h0l-3.58,27.71M922.92,254.41c79.6,1.09,152.46,46.72,175.7,123.73,23.89-2.46,40.92,2.06,59.7,10.58,21.93-74.91-13.45-155.33-86.13-185.49-49.17-20.4-104.5-8.9-145.69,23.46M1374.62,992.48c82.68-31.03,137.11-113.47,127.48-202.12-7.98-73.5-58.41-133.6-129.15-149.94-7.79-12.01-.56-21.44,2.52-32.31,14.6-51.58,4.3-104.76-30.81-143.28-34.21-37.54-87.27-53.7-138.26-38.58,32.84,40.19,42.19,92.43,24.24,140.55,38.13,17.44,63.22,53.47,67.27,93.26,4.18,41.06-14.65,80.53-48.27,104.05,84.6,45.7,133.76,132.15,124.98,228.38ZM1086.24,652.01c7.31-22.99,12.75-42.76,13.96-65.27-54.38-18.33-89.14-65.74-98.18-121.11-64.35,30.48-139.76,24.29-198.56-16.34-55.71,49.96-81.61,129.99-57.73,202.1,30.12,90.98,128.19,136.93,219.99,110.71,11.44-32.78,38.62-55.54,72.82-65.99,8.76-21.42,24.82-37.06,47.71-44.11ZM293.61,1061.55l301.59-.27,78.74-2.21c24.88-.7,43.94-20.12,43.8-45.11l-1.5-277.31c-.15-27.55-17.45-48.66-45.37-51.02-134.71-11.4-267.97-15.4-403.54-14.7-20.42.11-42.4,12.73-43.07,36.06-3.08,107.25-2.56,214.34-.17,321.41,11.1,32,38.92,32.87,69.5,33.15ZM1089.43,804.42c2.3-9.11,59.84-37.46,47.41-89.22-3.57-14.87-16.8-27.02-29.44-28.21-34.07-3.22-26.23,32.6-58.62,43.91-24.11,8.42-49.87,28.75-49.41,56.91.81,49.28,12.93,96,25.32,143.18,10.85,41.3,44.25,71.77,87.12,74.14,19.18,1.06,37.38-7.15,47.23-21.12,41.31-58.6-74.8-158.98-69.6-179.6ZM1164.1,1158.87c90.85-15.96,163.29-92.25,163.49-186.83.2-96.11-71.62-173.71-165.89-189.07-6.25,11.82-15.62,20.31-25.09,30.08,42.43,59.05,99.95,128.62,55.69,193.11-15.93,23.21-43.92,37.79-75.32,38.67-88.65,2.47-89.37-80.87-193.52-62.46-53.46-97.41-143.93-80.6-154.82-96.18-4.94-7.07-4.18-19.8-.36-27.69,4.42-9.13,13.53-9.01,23.16-8.06,62.16,6.12,118.35,36.18,153.95,87.35l42.01,3.91c-12.96-46.31-22.01-92.17-25.83-139.14-74.71,17.21-150.61-5.97-205.42-60.76l1.64,114.24-.3,90.27-.67,70.22c-.35,36.09-24.35,65.78-57.37,77.1l-17.17,3.4-12.69,1.64-430.87-2.55c-45.93-.27-92.27-30.42-99.53-74.2l-8.73-156.77c-39.03,45.7-47.96,106-29.57,161.98,20.95,63.77,74.52,110.67,138.04,127.55,11.25,2.99,13.55,7.01,39.31,6.82l864.21.04,21.64-2.65Z"/>
    <path class="st3" d="M1086.24,652.01c-22.89,7.04-38.95,22.69-47.71,44.11-34.2,10.45-61.38,33.21-72.82,65.99-91.8,26.22-189.87-19.73-219.99-110.71-23.87-72.12,2.02-152.14,57.73-202.1,58.8,40.63,134.21,46.82,198.56,16.34,9.04,55.38,43.8,102.78,98.18,121.11-1.21,22.51-6.65,42.28-13.96,65.27ZM832.49,566.66c-16.69-8.4-10.5-37.23-30.2-28.62-5.82,2.55-9.28,8.6-8.15,16.42,2.78,19.32,18.11,34.3,34.54,39.53,19.3,6.15,39.1,2.41,52.49-11.69,5.89-6.2,5.02-14.86-.16-19.8-13.45-12.81-23.04,16.97-48.51,4.15ZM982.81,619.52c-23.31-8.54-10.78-32.1-29.68-32.07-7.33.01-13.81,7.63-13.2,16.45,1.38,19.84,16.3,34.86,32.94,40.76,19.33,6.86,39.96,3.36,54.1-10.83,5.18-5.2,4.91-13.59,1.56-17.93-11.15-14.46-24.08,11.55-45.73,3.62ZM923.29,670.27c-29.66,12.64-61.32-2.92-73.15-30.51-3.02-7.06-13.02-7.46-17.71-4.95-5.62,3.01-9.14,10.4-6.08,18.16,17.11,43.31,70.54,63.6,111.78,42.37,8.67-4.47,10.53-14.33,7.63-19.98-4.78-9.3-13.49-8.92-22.47-5.09Z"/>
    <path class="st3" d="M1089.43,804.42c-5.2,20.62,110.91,121,69.6,179.6-9.85,13.97-28.05,22.18-47.23,21.12-42.87-2.37-76.27-32.84-87.12-74.14-12.39-47.18-24.51-93.9-25.32-143.18-.46-28.16,25.3-48.48,49.41-56.91,32.38-11.31,24.55-47.13,58.62-43.91,12.64,1.19,25.87,13.34,29.44,28.21,12.43,51.76-45.11,80.11-47.41,89.22Z"/>
    <path class="st6" d="M768.28,858.49c-3.51-2.19-7.02-2.76-10.49-2.45l-1.64-114.24c54.81,54.79,130.71,77.96,205.42,60.76,3.81,46.97,12.87,92.83,25.83,139.14l-42.01-3.91c-35.61-51.17-91.79-81.23-153.95-87.35-9.64-.95-18.75-1.07-23.16,8.06Z"/>
    <path class="st11" d="M923.29,670.27c8.98-3.83,17.7-4.21,22.47,5.09,2.9,5.65,1.05,15.51-7.63,19.98-41.24,21.24-94.67.94-111.78-42.37-3.07-7.76.46-15.15,6.08-18.16,4.69-2.51,14.69-2.11,17.71,4.95,11.83,27.59,43.49,43.15,73.15,30.51Z"/>
    <path class="st11" d="M982.81,619.52c21.65,7.93,34.58-18.08,45.73-3.62,3.35,4.34,3.62,12.73-1.56,17.93-14.14,14.19-34.77,17.68-54.1,10.83-16.65-5.9-31.56-20.92-32.94-40.76-.61-8.82,5.87-16.43,13.2-16.45,18.9-.03,6.37,23.53,29.68,32.07Z"/>
    <path class="st4" d="M832.49,566.66c25.47,12.82,35.06-16.95,48.51-4.15,5.18,4.93,6.05,13.6.16,19.8-13.39,14.1-33.19,17.84-52.49,11.69-16.43-5.23-31.76-20.21-34.54-39.53-1.12-7.82,2.33-13.88,8.15-16.42,19.7-8.62,13.51,20.21,30.2,28.62Z"/>
  </g>
  <g>
    <path class="st8" d="M595.21,1061.28l-301.59.27c-30.59-.27-58.4-1.14-69.5-33.15-2.39-107.07-2.91-214.17.17-321.41.67-23.34,22.65-35.96,43.07-36.06,135.56-.7,268.83,3.31,403.54,14.7,27.92,2.36,45.22,23.47,45.37,51.02l1.5,277.31c.14,24.99-18.92,44.41-43.8,45.11l-78.74,2.21ZM246.49,832.04l.25,70.84,5.08,73.6c5.36,33.19,31.74,51.8,64.53,54.36,91.34,7.14,182.27,8.26,273.31-1.44,33.34-3.55,53.99-30.58,56.26-61.96,4.86-67.21,4.09-131.49.5-199.03-1.72-32.36-22.54-61.71-56.85-65.38-91.81-9.81-183.37-10.86-275.24-3.62-37.92,2.99-61.96,30.08-64.09,67.32l-3.75,65.31ZM701.87,796.56c0-10.67-8.65-19.31-19.31-19.31s-19.31,8.65-19.31,19.31,8.65,19.31,19.31,19.31,19.31-8.65,19.31-19.31ZM702.41,852.54c0-10.61-8.6-19.21-19.21-19.21s-19.21,8.6-19.21,19.21,8.6,19.21,19.21,19.21,19.21-8.6,19.21-19.21ZM702.65,908.65c0-10.71-8.68-19.39-19.39-19.39s-19.39,8.68-19.39,19.39,8.68,19.39,19.39,19.39,19.39-8.68,19.39-19.39Z"/>
    <path class="st2" d="M595.21,1061.28l-301.59.27,301.59-.27Z"/>
    <path class="st11" d="M246.74,902.88c3.34-22.92,4.72-47.31-.25-70.84l3.75-65.31c2.14-37.23,26.17-64.33,64.09-67.32,91.87-7.25,183.43-6.19,275.24,3.62,34.32,3.67,55.13,33.02,56.85,65.38,3.59,67.55,4.36,131.82-.5,199.03-2.27,31.38-22.93,58.41-56.26,61.96-91.04,9.7-181.97,8.58-273.31,1.44-32.79-2.57-59.17-21.18-64.53-54.36l-5.08-73.6ZM612.18,923.93c3.08-36.08.67-70.54-.57-107.11l-2.28-43.52c-1-19.08-13.17-33.98-33.26-35.98-84.43-8.4-168.7-8.98-253.3-2.16-20.83,1.68-34.1,14.24-35.78,34.75-5.3,64.54-5.73,128.41-.14,193.14,1.46,16.98,12.99,30.01,30.59,31.53,86.39,7.45,172.65,7.24,259,.33,19.27-1.54,31.34-14.16,32.76-32.4l2.99-38.58Z"/>
    <circle class="st11" cx="683.26" cy="908.65" r="19.39"/>
    <circle class="st11" cx="682.55" cy="796.56" r="19.31"/>
    <circle class="st11" cx="683.2" cy="852.54" r="19.21"/>
    <path class="st2" d="M246.74,902.88l-.25-70.84c4.97,23.52,3.59,47.92.25,70.84Z"/>
    <g>
      <path class="st0" d="M611.61,816.82l2.4,17.36c-.35.96-.07,2.07-.08,2.64l-1.75,87.11-2.99,38.58c-1.41,18.24-13.49,30.85-32.76,32.4-86.35,6.91-172.6,7.13-259-.33-17.6-1.52-29.13-14.55-30.59-31.53-5.58-64.73-5.15-128.6.14-193.14,1.68-20.51,14.95-33.07,35.78-34.75,84.6-6.82,168.86-6.24,253.3,2.16,20.09,2,32.26,16.9,33.26,35.98l2.28,43.52ZM373.55,846.16c-17.45-3.29-19.05-28.29-34.44-17.29-5.24,3.74-7.18,11.26-4.2,17.48,8.16,17.07,24.52,25.39,42.52,25.38,16.85-.01,34.25-9.57,41.13-26.32,3.08-7.5-.78-16.05-7.41-17.96-16.96-4.89-16.2,22.75-37.61,18.72ZM520.85,846.36c-20.17-.33-20.19-27.87-36.58-17.64-5.15,3.22-7.52,10.51-4.93,16.64,7.21,17.03,24.31,26.02,41.42,26.28,17.81.27,34.44-8.14,42-25.4,2.74-6.27.91-13.53-4.06-17.05-16.54-11.69-16.9,17.52-37.85,17.18ZM486.83,903.66c-45.13,46.52-81.3-21.38-93.78,4.54-3.23,6.71-1.63,13.57,4.51,19.49,28.35,27.31,76.59,27.27,104.08-.99,6.02-6.19,6.36-13.69,2.6-19.78-2.76-4.47-11.95-8.9-17.42-3.26Z"/>
      <path class="st2" d="M612.18,923.93l1.75-87.11.08-2.64-2.4-17.36c5.26,36.02,5.25,72.95.57,107.11Z"/>
      <path class="st11" d="M486.83,903.66c5.47-5.64,14.65-1.21,17.42,3.26,3.76,6.09,3.42,13.59-2.6,19.78-27.49,28.26-75.73,28.3-104.08.99-6.14-5.92-7.74-12.77-4.51-19.49,12.47-25.92,48.65,41.98,93.78-4.54Z"/>
      <path class="st11" d="M373.55,846.16c21.41,4.03,20.65-23.6,37.61-18.72,6.62,1.91,10.49,10.46,7.41,17.96-6.88,16.75-24.29,26.31-41.13,26.32-18,.01-34.36-8.31-42.52-25.38-2.98-6.22-1.03-13.74,4.2-17.48,15.38-11,16.99,14.01,34.44,17.29Z"/>
      <path class="st11" d="M520.85,846.36c20.95.34,21.31-28.87,37.85-17.18,4.98,3.52,6.81,10.78,4.06,17.05-7.56,17.26-24.19,25.67-42,25.4-17.11-.25-34.21-9.25-41.42-26.28-2.6-6.13-.22-13.42,4.93-16.64,16.39-10.23,16.41,17.31,36.58,17.64Z"/>
      <path class="st11" d="M613.93,836.82c.01-.57-.27-1.68.08-2.64l-.08,2.64Z"/>
    </g>
  </g>
  <path class="st1" d="M1098.62,378.14c-37.66-98.79-113.21-121.89-192.81-122.97l.4-20.95c41.18-32.36,86.24-61.66,165.98-30.98,73.44,28.25,108.06,110.58,86.13,185.49-18.78-8.52-35.81-13.04-59.7-10.58Z"/>
</svg>