<svg width="256" height="256" viewBox="0 0 128 128" fill="none" xmlns="http://www.w3.org/2000/svg">
  <rect width="128" height="128" rx="32" fill="#6DBB60" />
  <path
    d="M18 34C18 22.9543 26.9543 14 38 14H56C70.3594 14 82 25.6406 82 40C82 54.3594 70.3594 66 56 66H38C26.9543 66 18 57.0457 18 46V34Z"
    fill="#5A87DF"
  />
  <path
    d="M72 22C72 15.3726 77.3726 10 84 10H98C112.359 10 124 21.6406 124 36C124 50.3594 112.359 62 98 62H84C77.3726 62 72 56.6274 72 50V22Z"
    fill="#EFC94B"
  />
  <path
    d="M64 88C64 78.0589 72.0589 70 82 70H90C104.359 70 116 81.6406 116 96C116 110.359 104.359 122 90 122H82C72.0589 122 64 113.941 64 104V88Z"
    fill="#EF735B"
  />
  <path
    d="M31 105C15.536 105 3 92.464 3 77C3 61.536 15.536 49 31 49H33C48.464 49 61 61.536 61 77C61 92.464 48.464 105 33 105H31Z"
    fill="#A3D79A"
    fill-opacity="0.38"
  />
  <circle cx="62" cy="52" r="3" fill="#181A21" />
  <circle cx="73" cy="53" r="2.4" fill="#181A21" />
  <path d="M61 63C64 68 70 68 73 64" stroke="#181A21" stroke-linecap="round" stroke-width="3" />
</svg>
